<?xml version="1.0" encoding="UTF-8"?>
<svg width="130px" height="130px" viewBox="0 0 130 130" version="1.1" xmlns="http://www.w3.org/2000/svg" xmlns:xlink="http://www.w3.org/1999/xlink">
    <!-- Generator: Sketch 57.1 (83088) - https://sketch.com -->
    <title>无信号</title>
    <desc>Created with Sketch.</desc>
    <defs>
        <linearGradient x1="50%" y1="0%" x2="50%" y2="100%" id="linearGradient-1">
            <stop stop-color="#EDEDEE" offset="0%"></stop>
            <stop stop-color="#FDFDFD" offset="100%"></stop>
        </linearGradient>
        <circle id="path-2" cx="65" cy="65" r="65"></circle>
        <linearGradient x1="84.5170455%" y1="64.9502841%" x2="12.162642%" y2="33.0255682%" id="linearGradient-4">
            <stop stop-color="#F1F1F1" offset="0%"></stop>
            <stop stop-color="#FFFFFF" offset="100%"></stop>
        </linearGradient>
        <linearGradient x1="55.259811%" y1="19.1368231%" x2="45.838648%" y2="70.3361957%" id="linearGradient-5">
            <stop stop-color="#F1F1F1" offset="0%"></stop>
            <stop stop-color="#FFFFFF" offset="100%"></stop>
        </linearGradient>
        <linearGradient x1="50%" y1="0%" x2="50%" y2="100%" id="linearGradient-6">
            <stop stop-color="#EEEEEE" offset="0%"></stop>
            <stop stop-color="#D8D8D8" offset="100%"></stop>
        </linearGradient>
    </defs>
    <g id="页面-1" stroke="none" stroke-width="1" fill="none" fill-rule="evenodd">
        <g id="画板" transform="translate(-705.000000, -383.000000)">
            <g id="无信号" transform="translate(705.000000, 383.000000)">
                <g id="编组-4">
                    <g id="无数据">
                        <g id="椭圆形">
                            <mask id="mask-3" fill="white">
                                <use xlink:href="#path-2"></use>
                            </mask>
                            <use id="蒙版" fill="url(#linearGradient-1)" xlink:href="#path-2"></use>
                            <path d="M113.012234,62.4012582 C115.114404,62.3189198 116.907013,66.3003695 116.188772,67.7605518 C115.650915,68.8537207 114.540962,69.3634706 113.369369,69.5064415 C113.424721,70.6590063 113.489085,72.15 113.489085,72.15 L113.489085,72.15 L112.338815,72.15 L112.545376,69.5493619 C111.019921,69.5279602 109.591799,68.9713692 109.384972,68.3566051 C108.412323,65.464392 111.520371,62.4593606 113.012234,62.4012582 Z" id="路径-2" fill="#E8E8E8" fill-rule="nonzero" mask="url(#mask-3)"></path>
                            <path d="M120.725967,65.000915 C122.063712,64.9410326 123.204463,67.8366323 122.7474,68.8985832 C122.405026,69.6938501 121.698376,70.0645615 120.952573,70.1684133 C120.979137,70.8428793 121.003451,71.5 121.003451,71.5 L121.003451,71.5 L120.313289,71.5 L120.401472,70.198993 C119.441087,70.1763445 118.548088,69.7749679 118.41771,69.3320764 C117.798751,67.2286488 119.7766,65.0431714 120.725967,65.000915 Z" id="路径-2" fill="#E8E8E8" fill-rule="nonzero" mask="url(#mask-3)"></path>
                            <path d="M64.871251,57.9110497 C64.7722133,57.9505525 64.6236568,58.0098066 64.4255814,58.0690608 C64.227506,58.1381906 63.9997193,58.1974448 63.7521251,58.2665746 C63.5045309,58.3357044 63.197514,58.3850829 62.8409783,58.4245856 C62.4844427,58.4640884 62.127907,58.4937155 61.7614675,58.4937155 C61.5336808,58.4937155 60.9394547,58.444337 60.6027265,58.3554558 C59.810425,58.1381906 59.4043705,58.029558 59.4043705,58.029558 L58.2555333,57.6444061 C57.8692863,57.5160221 57.4731355,57.4073895 57.0571772,57.3185083 C56.6511227,57.2395028 56.2549719,57.2 55.8984362,57.2 C55.5319968,57.2 55.1655573,57.2197514 54.8090217,57.2691298 C54.452486,57.3185083 54.1454691,57.3678867 53.9077787,57.4271409 C53.679992,57.4765193 53.4522053,57.5456492 53.2244186,57.6246547 C53.0065357,57.7036602 52.8579791,57.7530387 52.7985565,57.7826657 C52.7292302,57.8122928 52.6797113,57.8320442 52.65,57.8517956 L52.65,70.8482044 C52.65,71.0259669 52.7094226,71.1839779 52.8381716,71.3123619 C52.9669206,71.4407459 53.1154771,71.5 53.293745,71.5 C53.4720128,71.5 53.6304731,71.4407459 53.7493184,71.3123619 C53.8780674,71.1839779 53.93749,71.0358425 53.93749,70.8482044 L53.93749,66.5226519 C54.5911387,66.3745166 55.2447875,66.3053867 55.8885325,66.3053867 C56.4431435,66.3152624 56.8591018,66.394268 57.0472735,66.4436464 L58.2456295,66.7695442 L59.3944667,67.1448204 C59.7906175,67.2732044 60.1867682,67.381837 60.5928228,67.4707182 C61.0087811,67.5595994 61.3950281,67.6089779 61.7515638,67.6089779 C62.1180032,67.6089779 62.4844427,67.5892265 62.8409783,67.5398481 C63.2074178,67.4904696 63.5045309,67.4410912 63.7422213,67.381837 C63.970008,67.3324586 64.1977947,67.2633287 64.4255814,67.1843232 C64.6434643,67.1053177 64.7920209,67.0559392 64.8514435,67.0263122 C64.9207698,66.9966851 64.9702887,66.9769337 65,66.9571823 L65,57.8517956 L64.871251,57.9110497 Z" id="路径" fill="#E8E8E8" fill-rule="nonzero" mask="url(#mask-3)"></path>
                            <circle fill="#FBFBFB" mask="url(#mask-3)" cx="17.875" cy="108.225" r="44.525"></circle>
                            <circle fill="#FBFBFB" mask="url(#mask-3)" cx="118.625" cy="108.225" r="36.725"></circle>
                            <ellipse fill="#FFFFFF" opacity="0.805385045" mask="url(#mask-3)" cx="65" cy="150.475" rx="88.4" ry="79.625"></ellipse>
                            <circle fill="url(#linearGradient-4)" mask="url(#mask-3)" cx="89.05" cy="24.05" r="7.15"></circle>
                        </g>
                    </g>
                    <g id="树叶" transform="translate(0.000000, 104.000000)">
                        <g transform="translate(6.000000, 0.000000)" fill-rule="nonzero">
                            <rect id="矩形" fill="#000000" opacity="0" x="0" y="0" width="20" height="20"></rect>
                            <path d="M6.18,11.39 C7.25,12.85 8.8,13.99 10.67,14.06 L10.67,17.58 C9.38,17.43 8.55,16.8 8.13,15.66 C7.82,14.82 7.06,14.3 7.03,14.28 L6.99,14.26 C6.42,14.09 6.05,13.77 5.88,13.31 C5.67,12.74 5.83,12.14 5.99,11.88 C6.09,11.72 6.15,11.55 6.18,11.39 Z M15.16,11.78 C15.18,11.81 15.2,11.85 15.22,11.89 C15.38,12.14 15.54,12.75 15.33,13.32 C15.16,13.77 14.79,14.09 14.22,14.27 L14.18,14.29 C14.15,14.31 13.39,14.83 13.08,15.67 C12.84,16.33 12.37,17.14 10.92,17.56 C10.93,16.59 10.92,15.62 10.92,14.65 C11.81,14.39 12.69,13.98 13.49,13.53 C13.89,13.3 14.2,13 14.5,12.65 C14.74,12.37 14.97,12.09 15.16,11.78 Z M14.7,7.61 C14.71,7.62 14.72,7.64 14.74,7.65 C14.82,7.72 14.93,7.78 15.04,7.85 C15.44,8.08 15.75,8.29 15.68,8.7 C15.56,9.4 15.06,10.52 15.06,10.53 L15.05,10.55 C15.04,10.57 14.94,11 15.05,11.45 C14.85,11.85 14.56,12.19 14.27,12.53 C13.98,12.86 13.67,13.13 13.29,13.34 C12.54,13.75 11.74,14.12 10.92,14.37 C10.91,13.08 10.9,11.79 10.88,10.51 L10.89,10.51 C11.75,10.32 12.58,10.04 13.28,9.49 C13.92,8.99 14.33,8.31 14.7,7.61 Z M6.5,7.63 C6.71,7.99 6.93,8.34 7.17,8.67 C7.45,9.04 7.79,9.32 8.18,9.57 C8.91,10.05 9.72,10.47 10.62,10.32 C10.64,11.48 10.65,12.65 10.66,13.81 C8.78,13.74 7.24,12.51 6.21,11.01 C6.21,10.76 6.16,10.57 6.16,10.55 L6.15,10.53 C6.14,10.52 5.65,9.4 5.53,8.7 C5.46,8.28 5.76,8.08 6.17,7.85 C6.29,7.78 6.39,7.72 6.47,7.66 L6.5,7.63 Z M14.07,4.45 C14.5,4.78 14.72,5.52 14.7,6.58 C14.66,6.7 14.57,7.02 14.59,7.29 C14.21,8.02 13.82,8.73 13.17,9.26 C12.5,9.8 11.7,10.07 10.87,10.26 C10.85,9.09 10.83,7.93 10.82,6.76 C10.83,6.76 10.83,6.76 10.83,6.75 C11.05,6.61 11.28,6.46 11.45,6.26 C11.62,6.06 11.76,5.84 11.91,5.62 C12.2,5.21 12.5,4.8 12.67,4.32 C12.93,4.36 13.18,4.28 13.19,4.28 C13.21,4.28 13.67,4.15 14.07,4.45 Z M8.01,4.28 C8.03,4.29 8.36,4.39 8.65,4.29 C8.8,4.81 9.03,5.3 9.39,5.71 C9.71,6.06 10.09,6.48 10.57,6.58 C10.59,7.74 10.61,8.91 10.62,10.07 L10.61,10.07 C9.73,10.23 8.93,9.77 8.23,9.29 C7.85,9.03 7.54,8.75 7.28,8.38 C7.04,8.04 6.82,7.68 6.62,7.32 C6.66,7.03 6.56,6.7 6.52,6.58 C6.5,5.52 6.71,4.79 7.14,4.46 C7.54,4.15 8,4.28 8.01,4.28 Z M10.76,0.83 C11.32,1.19 12.46,2.05 12.2,3.11 C12.08,3.61 12.12,3.96 12.34,4.16 C12.38,4.2 12.41,4.22 12.44,4.24 C12.29,4.67 12.02,5.05 11.76,5.42 C11.61,5.63 11.47,5.86 11.3,6.05 C11.16,6.21 10.99,6.34 10.81,6.46 C10.8,5.91 10.79,5.36 10.79,4.81 C10.77,3.48 10.76,2.16 10.76,0.83 Z M10.52,0.83 C10.52,2.66 10.54,4.49 10.57,6.32 C10.16,6.21 9.78,5.77 9.52,5.47 C9.2,5.1 9.01,4.63 8.88,4.17 C9.09,3.97 9.14,3.62 9.01,3.12 C8.76,2.15 9.97,1.2 10.52,0.83 Z" id="路径-9" fill="#CBCBCB"></path>
                            <path d="M11.76,5.42 C12.02,5.05 12.29,4.67 12.44,4.24 C12.41,4.22 12.37,4.2 12.35,4.17 C12.13,3.97 12.08,3.62 12.21,3.12 C12.47,2.06 11.33,1.2 10.77,0.84 C10.77,2.17 10.78,3.49 10.8,4.82 C10.81,5.37 10.81,5.92 10.82,6.47 C11,6.35 11.17,6.22 11.31,6.06 C11.47,5.86 11.61,5.63 11.76,5.42 Z M13.49,13.52 C12.68,13.98 11.81,14.38 10.92,14.64 C10.92,15.61 10.93,16.58 10.92,17.55 C12.37,17.13 12.84,16.32 13.08,15.66 C13.39,14.82 14.15,14.3 14.18,14.28 L14.2,14.27 L14.22,14.26 C14.79,14.09 15.16,13.77 15.33,13.31 C15.54,12.74 15.37,12.14 15.22,11.88 C15.2,11.84 15.18,11.81 15.16,11.77 C14.98,12.08 14.74,12.36 14.5,12.64 C14.21,12.99 13.89,13.29 13.49,13.52 L13.49,13.52 Z M14.71,7.61 C14.34,8.32 13.93,8.99 13.29,9.49 C12.59,10.04 11.76,10.32 10.9,10.51 L10.89,10.51 C10.91,11.8 10.92,13.09 10.93,14.37 C11.75,14.12 12.55,13.74 13.3,13.34 C13.69,13.13 13.99,12.86 14.28,12.53 C14.57,12.19 14.86,11.85 15.06,11.45 C14.95,11 15.06,10.57 15.06,10.55 L15.07,10.53 C15.08,10.52 15.57,9.4 15.69,8.7 C15.76,8.28 15.46,8.08 15.05,7.85 C14.93,7.78 14.83,7.72 14.75,7.66 C14.73,7.64 14.72,7.63 14.71,7.61 L14.71,7.61 Z M13.17,9.26 C13.82,8.73 14.21,8.02 14.59,7.29 C14.56,7.01 14.66,6.69 14.7,6.58 C14.72,5.52 14.51,4.78 14.07,4.45 C13.67,4.14 13.21,4.28 13.2,4.28 C13.19,4.28 12.94,4.37 12.68,4.32 C12.51,4.8 12.22,5.21 11.92,5.62 C11.77,5.83 11.63,6.06 11.46,6.26 C11.28,6.46 11.06,6.61 10.84,6.75 L10.83,6.76 C10.85,7.93 10.87,9.09 10.88,10.26 C11.7,10.08 12.51,9.81 13.17,9.26 L13.17,9.26 Z M10.56,6.32 C10.53,4.49 10.51,2.66 10.51,0.83 C9.96,1.2 8.76,2.15 9.01,3.12 C9.14,3.61 9.09,3.97 8.88,4.17 C9.01,4.64 9.2,5.1 9.52,5.47 C9.78,5.77 10.15,6.21 10.56,6.32 L10.56,6.32 Z M10.65,19.48 C10.66,18.92 10.66,18.36 10.67,17.81 L10.66,17.89 C9.23,17.73 8.31,17.04 7.85,15.77 C7.6,15.08 6.99,14.62 6.88,14.54 C6.07,14.29 5.74,13.79 5.6,13.42 C5.35,12.75 5.54,12.04 5.74,11.73 C6.01,11.3 5.89,10.73 5.88,10.65 C5.82,10.51 5.37,9.47 5.24,8.76 C5.13,8.1 5.67,7.8 6.03,7.59 C6.13,7.53 6.22,7.48 6.27,7.43 C6.39,7.32 6.32,6.91 6.23,6.66 L6.22,6.64 L6.22,6.62 C6.19,5.43 6.44,4.62 6.96,4.22 C7.48,3.82 8.08,3.99 8.1,4 C8.21,4.03 8.52,4.09 8.67,3.95 C8.8,3.83 8.81,3.57 8.72,3.2 C8.36,1.8 10.36,0.57 10.6,0.42 L10.61,0.4 C10.61,0.4 10.62,0.4 10.62,0.41 C10.84,0.53 12.88,1.64 12.49,3.2 C12.4,3.58 12.42,3.84 12.54,3.96 C12.69,4.1 12.99,4.04 13.1,4.01 C13.13,4 13.72,3.83 14.24,4.23 C14.76,4.63 15.01,5.44 14.98,6.63 L14.98,6.65 L14.97,6.67 C14.88,6.92 14.81,7.33 14.93,7.44 C14.98,7.48 15.07,7.54 15.17,7.6 C15.53,7.8 16.07,8.11 15.96,8.77 C15.84,9.48 15.38,10.52 15.32,10.66 C15.3,10.74 15.19,11.31 15.46,11.74 C15.65,12.05 15.85,12.76 15.6,13.43 C15.46,13.8 15.12,14.3 14.32,14.55 C14.21,14.63 13.6,15.09 13.35,15.78 C13.08,16.53 12.55,17.43 10.9,17.88 C10.89,18.42 10.89,18.96 10.88,19.49 C10.9,19.64 10.64,19.64 10.65,19.48 Z M10.66,14.07 C8.8,14 7.25,12.85 6.18,11.4 C6.15,11.56 6.09,11.73 5.99,11.89 C5.83,12.14 5.67,12.75 5.88,13.32 C6.05,13.77 6.42,14.09 6.99,14.27 L7.01,14.28 L7.03,14.29 C7.06,14.31 7.82,14.83 8.13,15.67 C8.55,16.81 9.38,17.44 10.67,17.59 C10.68,16.84 10.68,16.09 10.67,15.35 C10.67,14.91 10.67,14.49 10.66,14.07 L10.66,14.07 Z M6.21,11.01 C7.24,12.51 8.78,13.74 10.66,13.81 C10.65,12.65 10.64,11.49 10.62,10.32 C9.72,10.47 8.91,10.05 8.18,9.56 C7.8,9.3 7.45,9.03 7.17,8.66 C6.92,8.33 6.71,7.98 6.5,7.62 L6.47,7.65 C6.4,7.72 6.29,7.78 6.17,7.84 C5.76,8.07 5.46,8.28 5.53,8.69 C5.65,9.39 6.14,10.51 6.15,10.52 L6.16,10.54 C6.16,10.57 6.21,10.76 6.21,11.01 L6.21,11.01 Z M7.28,8.38 C7.54,8.75 7.86,9.04 8.23,9.29 C8.93,9.76 9.73,10.23 10.61,10.07 L10.62,10.07 C10.6,8.91 10.58,7.74 10.57,6.58 C10.09,6.48 9.71,6.07 9.4,5.71 C9.04,5.31 8.81,4.81 8.66,4.29 C8.37,4.39 8.04,4.28 8.02,4.28 C8.01,4.28 7.55,4.15 7.15,4.46 C6.72,4.79 6.51,5.53 6.53,6.58 C6.57,6.7 6.67,7.04 6.63,7.32 C6.83,7.69 7.04,8.04 7.28,8.38 Z" id="形状" fill="#B8B8B8"></path>
                        </g>
                        <path d="M0.15,22.8 L32.15,22.8 C30.9035121,19.4666667 28.3839719,17.8 24.5913793,17.8 C18.9024904,17.8 16.972562,20.0445256 11.4631313,19.2574899 C7.79017751,18.7327994 4.01913374,19.9136361 0.15,22.8 Z" id="路径-8" fill="#D8D8D8" transform="translate(16.150000, 20.300000) scale(-1, 1) translate(-16.150000, -20.300000) "></path>
                    </g>
                    <g id="树叶" transform="translate(113.500000, 118.000000) scale(-1, 1) translate(-113.500000, -118.000000) translate(97.000000, 109.000000)">
                        <g transform="translate(8.000000, 0.000000)" fill-rule="nonzero">
                            <rect id="矩形" fill="#000000" opacity="0" x="0" y="0" width="16" height="16"></rect>
                            <path d="M0.656,6.096 C1.64,6.256 2.64,6.408 3.568,6.8 C4.536,7.208 5.232,7.92 5.928,8.688 C6.664,9.496 7.128,10.36 7.488,11.384 C7.872,12.448 8.24,13.528 8.328,14.672 C8.384,14.872 8.072,15.032 7.928,14.824 C6.92,13.328 5.768,12.008 4.528,10.704 C3.184,9.296 1.848,7.872 0.448,6.512 C0.392,6.456 0.376,6.392 0.392,6.336 C0.384,6.208 0.496,6.064 0.656,6.096 Z M6.776,0.568 C8.704,1.888 9.384,4.584 9.432,6.808 C9.464,8.288 9.424,9.768 9.408,11.248 C9.392,12.384 9.568,13.808 8.856,14.792 C8.72,14.976 8.44,14.856 8.448,14.68 C8.44,14.656 8.44,14.632 8.44,14.608 C8.472,13.992 8.288,13.424 8.112,12.84 C7.96,12.344 7.856,11.848 7.784,11.336 C7.624,10.144 7.616,8.944 7.384,7.76 C7.168,6.632 6.968,5.544 6.912,4.4 C6.848,3.216 6.816,2.024 6.496,0.872 C6.384,0.696 6.576,0.432 6.776,0.568 Z M15.232,6.88 C15.352,6.888 15.416,6.968 15.432,7.064 C15.448,7.128 15.448,7.208 15.384,7.272 C13.4,9.664 11.528,12.144 9.768,14.704 C9.648,14.88 9.392,14.784 9.368,14.624 C9.36,14.6 9.352,14.568 9.352,14.528 C9.408,13.512 9.584,12.6 9.968,11.656 C10.312,10.816 10.592,9.896 11.056,9.112 C11.464,8.416 12.16,7.696 12.856,7.288 C13.568,6.864 14.424,6.832 15.232,6.88 Z" id="形状" fill="#CBCBCB"></path>
                        </g>
                        <path d="M0.15,17.8 L32.15,17.8 C30.9035121,14.4666667 28.3839719,12.8 24.5913793,12.8 C18.9024904,12.8 16.972562,15.0445256 11.4631313,14.2574899 C7.79017751,13.7327994 4.01913374,14.9136361 0.15,17.8 Z" id="路径-8" fill="#D8D8D8" transform="translate(16.150000, 15.300000) scale(-1, 1) translate(-16.150000, -15.300000) "></path>
                    </g>
                    <g id="编组-5" transform="translate(36.000000, 60.000000)">
                        <polygon id="路径-10" fill="url(#linearGradient-5)" points="21 34 4 65 51 70 48 39"></polygon>
                        <g id="编组-2">
                            <rect id="矩形" fill="#BFBFBF" transform="translate(41.000000, 8.500000) rotate(9.000000) translate(-41.000000, -8.500000) " x="40" y="5" width="2" height="7" rx="1"></rect>
                            <ellipse id="椭圆形" fill="#BFBFBF" transform="translate(41.500000, 4.500000) rotate(7.000000) translate(-41.500000, -4.500000) " cx="41.5" cy="4.5" rx="4.5" ry="3.5"></ellipse>
                            <ellipse id="椭圆形" fill="#BFBFBF" transform="translate(39.000000, 22.000000) rotate(15.000000) translate(-39.000000, -22.000000) " cx="39" cy="22" rx="19" ry="12"></ellipse>
                            <ellipse id="椭圆形" fill="#C0C0C0" transform="translate(36.500000, 30.000000) rotate(11.000000) translate(-36.500000, -30.000000) " cx="36.5" cy="30" rx="33.5" ry="14"></ellipse>
                            <ellipse id="椭圆形" fill="url(#linearGradient-6)" transform="translate(36.500000, 31.000000) rotate(11.000000) translate(-36.500000, -31.000000) " cx="36.5" cy="31" rx="33.5" ry="14"></ellipse>
                            <ellipse id="椭圆形" fill="#FFFFFF" transform="translate(35.500000, 37.000000) rotate(9.000000) translate(-35.500000, -37.000000) " cx="35.5" cy="37" rx="15.5" ry="7"></ellipse>
                            <ellipse id="椭圆形" fill="#FFFFFF" cx="15" cy="23.3507003" rx="3" ry="2"></ellipse>
                            <ellipse id="椭圆形" fill="#FFFFFF" transform="translate(30.000000, 22.350700) rotate(7.000000) translate(-30.000000, -22.350700) " cx="30" cy="22.3507003" rx="3" ry="2"></ellipse>
                            <ellipse id="椭圆形" fill="#FFFFFF" transform="translate(48.000000, 26.350700) rotate(19.000000) translate(-48.000000, -26.350700) " cx="48" cy="26.3507003" rx="3" ry="2"></ellipse>
                            <ellipse id="椭圆形" fill="#FFFFFF" transform="translate(60.000000, 34.350700) rotate(22.000000) translate(-60.000000, -34.350700) " cx="60" cy="34.3507003" rx="3" ry="2"></ellipse>
                        </g>
                    </g>
                </g>
            </g>
        </g>
    </g>
</svg>