<?xml version="1.0" encoding="UTF-8"?>
<svg width="111px" height="111px" viewBox="0 0 111 111" version="1.1" xmlns="http://www.w3.org/2000/svg" xmlns:xlink="http://www.w3.org/1999/xlink">
    <title>无数据-浅色</title>
    <defs>
        <linearGradient x1="50%" y1="0%" x2="50%" y2="100%" id="linearGradient-1">
            <stop stop-color="#E6E6E6" offset="0%"></stop>
            <stop stop-color="#FDFDFD" offset="100%"></stop>
        </linearGradient>
        <circle id="path-2" cx="54.5801527" cy="54.5801527" r="54.5801527"></circle>
        <linearGradient x1="84.5170455%" y1="64.9502841%" x2="12.162642%" y2="33.0255682%" id="linearGradient-4">
            <stop stop-color="#F1F1F1" offset="0%"></stop>
            <stop stop-color="#FFFFFF" offset="100%"></stop>
        </linearGradient>
        <linearGradient x1="100%" y1="50%" x2="4.66579861%" y2="53.6082231%" id="linearGradient-5">
            <stop stop-color="#B2B2B2" offset="0%"></stop>
            <stop stop-color="#C0C0C0" offset="100%"></stop>
        </linearGradient>
        <linearGradient x1="21.2669095%" y1="45.5118815%" x2="78.7330905%" y2="50%" id="linearGradient-6">
            <stop stop-color="#E1E0E0" offset="0%"></stop>
            <stop stop-color="#F3F3F3" offset="100%"></stop>
        </linearGradient>
        <linearGradient x1="44.2721893%" y1="45.5118815%" x2="55.7278107%" y2="50%" id="linearGradient-7">
            <stop stop-color="#E1E0E0" offset="0%"></stop>
            <stop stop-color="#F3F3F3" offset="100%"></stop>
        </linearGradient>
        <linearGradient x1="95.2246094%" y1="46.8477688%" x2="1.8359375%" y2="52.1841784%" id="linearGradient-8">
            <stop stop-color="#E5E5E5" offset="0%"></stop>
            <stop stop-color="#CCCCCC" offset="100%"></stop>
        </linearGradient>
        <linearGradient x1="95.2246094%" y1="37.1098916%" x2="1.8359375%" y2="58.9315456%" id="linearGradient-9">
            <stop stop-color="#E5E5E5" offset="0%"></stop>
            <stop stop-color="#CCCCCC" offset="100%"></stop>
        </linearGradient>
    </defs>
    <g id="云图V1.2" stroke="none" stroke-width="1" fill="none" fill-rule="evenodd">
        <g id="01主页-浅色-分析报告-为空" transform="translate(-1044.000000, -404.000000)">
            <g id="风险传播排行" transform="translate(889.000000, 250.000000)">
                <g id="为空状态" transform="translate(151.000000, 154.500000)">
                    <g id="无数据-浅色" transform="translate(4.919847, 0.000000)">
                        <g id="椭圆形">
                            <mask id="mask-3" fill="white">
                                <use xlink:href="#path-2"></use>
                            </mask>
                            <use id="蒙版" fill="url(#linearGradient-1)" xlink:href="#path-2"></use>
                            <path d="M94.8957688,52.398003 C96.6609502,52.328864 98.1661945,55.672066 97.5630908,56.8981733 C97.1113376,57.8163405 96.1789483,58.2443586 95.1948842,58.3642813 C95.2005847,58.4649185 95.205567,58.5702758 95.2105617,58.6769793 L95.2286438,59.067592 C95.2644017,59.8478635 95.296178,60.5839695 95.296178,60.5839695 L95.296178,60.5839695 L94.3303031,60.5839695 L94.5030462,58.4002176 C93.2223951,58.3820853 92.0236165,57.9147956 91.8499766,57.398676 C91.0332481,54.9701002 93.6430593,52.4467914 94.8957688,52.398003 Z" id="路径-2" fill="#E8E8E8" fill-rule="nonzero" mask="url(#mask-3)"></path>
                            <path d="M101.372949,54.580921 C102.496247,54.5306381 103.454129,56.9620577 103.070336,57.8537721 C102.782886,58.5214626 102.189638,58.8327531 101.563485,58.920006 C101.585508,59.4856645 101.605951,60.0381679 101.605951,60.0381679 L101.605951,60.0381679 L101.026426,60.0381679 L101.100979,58.9457312 C100.294356,58.9268426 99.5442186,58.5897455 99.434718,58.2177741 C98.9149816,56.4515371 100.575771,54.6164034 101.372949,54.580921 Z" id="路径-2" fill="#E8E8E8" fill-rule="nonzero" mask="url(#mask-3)"></path>
                            <path d="M54.4720428,48.627599 C54.3888814,48.6607693 54.2641393,48.7105247 54.0978164,48.76028 C53.9314936,48.818328 53.7402223,48.8680834 53.5323188,48.9261313 C53.3244152,48.9841793 53.0666148,49.0256421 52.7672337,49.0588124 C52.4678526,49.0919826 52.1684715,49.1168603 51.8607743,49.1168603 C51.669503,49.1168603 51.1705345,49.0753975 50.8877856,49.0007644 C50.2224943,48.818328 49.8815325,48.7271098 49.8815325,48.7271098 L48.91686,48.4036998 C48.5925305,48.2958964 48.2598848,48.2046782 47.9106068,48.1300451 C47.569645,48.0637046 47.2369993,48.0305344 46.9376182,48.0305344 C46.629921,48.0305344 46.3222237,48.0471195 46.0228426,48.0885823 C45.7234615,48.1300451 45.4656611,48.1715079 45.2660737,48.2212633 C45.0748024,48.2627262 44.8835312,48.3207741 44.6922599,48.3871146 C44.5093048,48.4534551 44.3845626,48.494918 44.3346658,48.5197957 C44.2764528,48.5446734 44.2348721,48.5612585 44.2099237,48.5778436 L44.2099237,59.4908587 C44.2099237,59.6401248 44.2598205,59.7728059 44.3679304,59.8806092 C44.4760402,59.9884126 44.6007823,60.0381679 44.7504729,60.0381679 C44.9001634,60.0381679 45.0332217,59.9884126 45.1330154,59.8806092 C45.2411253,59.7728059 45.2910221,59.6484174 45.2910221,59.4908587 L45.2910221,55.8587154 C45.8398875,55.7343269 46.3887529,55.6762789 46.9293021,55.6762789 C47.395006,55.6845715 47.744284,55.750912 47.9022907,55.7923748 L48.9085439,56.0660295 L49.8732163,56.3811469 C50.205862,56.4889503 50.5385077,56.5801685 50.8794695,56.6548016 C51.2287475,56.7294347 51.553077,56.7708975 51.8524581,56.7708975 C52.1601554,56.7708975 52.4678526,56.7543123 52.7672337,56.7128495 C53.074931,56.6713867 53.3244152,56.6299239 53.5240026,56.5801685 C53.7152739,56.5387057 53.9065452,56.4806577 54.0978164,56.4143172 C54.2807716,56.3479767 54.4055137,56.3065139 54.4554105,56.2816362 C54.5136235,56.2567585 54.5552042,56.2401733 54.5801527,56.2235882 L54.5801527,48.5778436 L54.4720428,48.627599 Z" id="路径" fill="#E8E8E8" fill-rule="nonzero" mask="url(#mask-3)"></path>
                            <circle fill="#FBFBFB" mask="url(#mask-3)" cx="15.009542" cy="90.8759542" r="37.3874046"></circle>
                            <circle fill="#FBFBFB" mask="url(#mask-3)" cx="99.6087786" cy="90.8759542" r="30.8377863"></circle>
                            <ellipse fill="#FFFFFF" opacity="0.805385045" mask="url(#mask-3)" cx="54.5801527" cy="126.353053" rx="74.2290076" ry="66.860687"></ellipse>
                            <circle fill="url(#linearGradient-4)" mask="url(#mask-3)" cx="74.7748092" cy="20.1946565" r="6.00381679"></circle>
                        </g>
                        <g id="编组-3" transform="translate(9.530534, 43.832061)">
                            <g id="树" transform="translate(85.438931, 13.477099)"></g>
                            <g id="编组" transform="translate(24.309160, 28.213740)">
                                <polygon id="路径-3" fill="#BDBDBD" points="6.54961832 3.27480916 19.3399107 0 44.2099237 1.63740458 32.2022901 4.91221374"></polygon>
                                <polygon id="路径-4" fill="url(#linearGradient-5)" points="19.1030534 0 19.1030534 4.36641221 6.54961832 3.27480916"></polygon>
                                <polygon id="矩形" fill="url(#linearGradient-6)" points="6.54961832 3.27480916 32.2022901 4.36641221 32.2022901 37.1145038 6.54961832 34.9654103"></polygon>
                                <polygon id="矩形" fill="url(#linearGradient-7)" points="32.2022901 4.36641221 44.2099237 1.63740458 44.2099237 34.2763359 32.2022901 37.1145038"></polygon>
                                <polygon id="路径-5" fill="url(#linearGradient-8)" points="6.44045802 3.27480916 0 10.5521628 25.7618321 12.0076336 32.2022901 4.36641221"></polygon>
                                <polygon id="路径-6" fill="url(#linearGradient-9)" points="32.2022901 4.36641221 37.1145038 10.9160305 49.1221374 7.64122137 44.2099237 1.63740458"></polygon>
                            </g>
                            <g id="树叶" transform="translate(0.419847, 47.862595)">
                                <path d="M0.419847328,15.009542 L24.980916,15.009542 C23.8562341,12.644402 21.8384224,11.4618321 18.9274809,11.4618321 C14.5610687,11.4618321 13.3317255,13.5236472 9.10305344,13.0992366 C6.28393873,12.8162963 3.38953669,13.4530647 0.419847328,15.009542 Z" id="路径-8" fill="#D8D8D8" transform="translate(12.700382, 13.235687) scale(-1, 1) translate(-12.700382, -13.235687) "></path>
                                <path d="M6.4149313,4.99080916 C7.22053435,5.12180153 8.03923664,5.24624427 8.79899237,5.56717557 C9.59149618,5.90120611 10.161313,6.48412214 10.7311298,7.1128855 C11.3336947,7.77439695 11.7135725,8.48175573 12.0083053,9.32010687 C12.322687,10.1912061 12.6239695,11.0754046 12.6960153,12.012 C12.7418626,12.1757405 12.4864275,12.3067328 12.3685344,12.1364427 C11.5432824,10.9116641 10.6001374,9.8309771 9.58494656,8.76338931 C8.48461069,7.61065649 7.39082443,6.44482443 6.24464122,5.33138931 C6.19879389,5.28554198 6.18569466,5.23314504 6.19879389,5.18729771 C6.19224427,5.08250382 6.28393893,4.96461069 6.4149313,4.99080916 Z M11.4253893,0.465022901 C13.0038473,1.54570992 13.5605649,3.7529313 13.5998626,5.57372519 C13.6129618,6.17956489 13.6113244,6.78540458 13.6047748,7.39124427 L13.5802137,9.20876336 L13.5802137,9.20876336 C13.5671145,10.1388092 13.7112061,11.3046412 13.1282901,12.1102443 C13.0169466,12.2608855 12.7877099,12.1626412 12.7942595,12.0185496 C12.7877099,11.9989008 12.7877099,11.9792519 12.7877099,11.9596031 C12.8139084,11.4552824 12.6632672,10.9902595 12.5191756,10.5121374 C12.3947328,10.1060611 12.3095878,9.69998473 12.2506412,9.28080916 C12.1196489,8.30491603 12.1130992,7.32247328 11.9231603,6.35312977 C11.7463206,5.42963359 11.5825802,4.5388855 11.5367328,3.60229008 C11.4843359,2.63294656 11.4581374,1.65705344 11.1961527,0.713908397 C11.104458,0.569816794 11.2616489,0.353679389 11.4253893,0.465022901 Z M18.3483359,5.63267176 C18.4465802,5.63922137 18.4989771,5.70471756 18.5120763,5.78331298 C18.5251756,5.83570992 18.5251756,5.90120611 18.4727786,5.95360305 C16.8484733,7.91193893 15.3158626,9.94232061 13.8749466,12.0381985 C13.7767023,12.1822901 13.5671145,12.1036947 13.5474656,11.9727023 C13.540916,11.9530534 13.5343664,11.926855 13.5343664,11.8941069 C13.5802137,11.0623053 13.7243053,10.3156489 14.038687,9.54279389 C14.3203206,8.85508397 14.5495573,8.10187786 14.9294351,7.46001527 C15.2634656,6.89019847 15.8332824,6.30073282 16.4030992,5.96670229 C16.9860153,5.61957252 17.6868244,5.59337405 18.3483359,5.63267176 Z" id="形状" fill="#DBDBDB" fill-rule="nonzero"></path>
                            </g>
                            <g id="飞机" transform="translate(41.732824, 0.671756)">
                                <path d="M30.0044571,0.0734732824 C30.1499203,0.177805344 30.207224,0.318874046 30.1807762,0.492270992 L28.5013366,10.5683969 C28.4792967,10.694771 28.4087691,10.7932252 28.291223,10.8637595 C28.2309806,10.8975573 28.1619223,10.9166603 28.088456,10.9166603 C28.0399682,10.9166603 27.9870725,10.9049046 27.9312381,10.8828626 L24.960261,9.66908397 L23.3719196,11.6058397 C23.292576,11.7072328 23.1853152,11.7557252 23.0501372,11.7557252 C22.9943028,11.7557252 22.9458151,11.7469084 22.904674,11.7292748 C22.8223917,11.698416 22.7548027,11.6484542 22.7048456,11.5749809 C22.6548885,11.5029771 22.6284407,11.423626 22.6284407,11.335458 L22.6284407,9.0475 L28.295631,2.09986641 L21.2840074,8.16875954 L18.6935857,7.10633588 C18.5319599,7.04608779 18.4438003,6.9255916 18.4320457,6.74484733 C18.4232297,6.56998092 18.4922881,6.44066794 18.6421593,6.3569084 L29.5563126,0.058778626 C29.6224323,0.0191030534 29.6914906,0 29.7664263,0 C29.8545858,0 29.9339294,0.024980916 30.0044571,0.0734732824 Z" id="路径" fill="#B2B2B2" fill-rule="nonzero"></path>
                                <path d="M0.797709924,30.2290076 C3.62468193,23.2035623 6.70356234,18.4452926 10.0343511,15.9541985 C13.3651399,13.4631043 17.0038168,11.5038168 20.9503817,10.0763359" id="路径-7" stroke="#B2B2B2" stroke-dasharray="2,2"></path>
                            </g>
                        </g>
                    </g>
                </g>
            </g>
        </g>
    </g>
</svg>