<?xml version="1.0" standalone="no"?><!DOCTYPE svg PUBLIC "-//W3C//DTD SVG 1.1//EN" "http://www.w3.org/Graphics/SVG/1.1/DTD/svg11.dtd"><svg t="1653013822550" class="icon" viewBox="0 0 1024 1024" version="1.1" xmlns="http://www.w3.org/2000/svg" p-id="7629" xmlns:xlink="http://www.w3.org/1999/xlink" width="128" height="128"><defs><style type="text/css">@font-face { font-family: feedback-iconfont; src: url("//at.alicdn.com/t/font_1031158_u69w8yhxdu.woff2?t=1630033759944") format("woff2"), url("//at.alicdn.com/t/font_1031158_u69w8yhxdu.woff?t=1630033759944") format("woff"), url("//at.alicdn.com/t/font_1031158_u69w8yhxdu.ttf?t=1630033759944") format("truetype"); }
</style></defs><path d="M512 0h21.12l22.485333 2.304 21.162667 1.152 19.925333 3.498667 21.248 3.541333 20.010667 4.693333 20.053333 5.888 19.925334 5.930667 9.429333 3.498667 9.472 3.626666 18.773333 8.149334 18.858667 8.234666 17.621333 9.386667 17.621334 9.472 17.706666 10.538667 16.554667 11.776 16.426667 11.776 15.317333 11.776 15.274667 12.970666 15.317333 14.08 14.08 14.08 14.165333 14.293334 13.013334 15.317333 5.845333 8.149333 5.845333 8.234667 12.970667 16.597333 10.666667 16.341334 10.453333 16.554666 10.581333 17.621334 8.234667 18.816 9.472 17.706666 7.04 18.816 7.04 19.968 7.125333 18.901334h-218.965333L648.533333 47.018667l-141.312 356.693333-148.309333-353.194667-261.290667 674.517334 118.954667 148.309333h604.928l110.72-161.365333-10.581333-24.661334h71.765333l-7.125333 18.816-8.192 17.621334-8.234667 17.706666-8.234667 16.469334-10.581333 17.621333-9.472 16.512-11.690667 15.36-10.666666 15.146667-11.648 15.36-13.013334 15.402666-12.970666 12.970667-14.08 14.037333-14.165334 13.056-14.208 12.885334-15.189333 11.861333-15.36 11.605333-15.36 10.666667-16.384 10.538667-16.426667 9.472-17.706666 9.429333-17.621334 8.192-17.706666 7.125333-18.773334 7.04-17.664 7.04-18.901333 5.930667-20.010667 4.693333-18.901333 4.693334-19.925333 3.498666-9.386667 1.194667-10.666667 1.194667-20.053333 2.346666-19.968 1.194667h-47.018667l-25.898666-2.389333-25.941334-3.541334-25.941333-4.650666-24.661333-5.973334-23.466667-5.888-23.637333-8.234666-23.552-9.386667-22.357334-10.538667-22.314666-10.666666-10.666667-7.04-10.496-5.845334-21.333333-12.970666-20.010667-14.165334-19.925333-15.232-9.386667-8.234666-8.234667-8.277334-9.386666-8.234666-8.234667-8.234667-17.706667-17.706667-16.554666-18.816-6.997334-9.386666-7.125333-10.666667-15.189333-20.010667-5.973334-9.386666-7.04-10.666667-5.845333-10.538667-5.930667-11.776-11.733333-21.077333-10.581333-23.594667-8.277334-22.272-8.234666-24.832-7.04-23.466666-3.626667-13.056-2.304-11.690667-2.346667-12.970667-2.304-12.885333-3.584-24.746667-1.152-27.093333L0 524.885333v-12.970666l2.261333-51.797334 3.584-25.898666 4.650667-25.941334 5.930667-24.661333 7.04-23.552 8.234666-23.466667 8.277334-23.552 10.581333-22.4 11.733333-22.442666 5.973334-10.496 5.802666-10.538667 13.013334-21.248 15.189333-20.053333 14.08-19.882667 8.362667-9.472 8.234666-8.234667 8.277334-9.386666 9.429333-8.32 17.621333-17.621334 17.621334-16.512 10.666666-7.04 9.258667-7.04 20.053333-15.317333 10.666667-5.930667 10.624-7.04 10.496-5.930666 10.666667-5.845334 22.314666-11.776 22.357334-10.538666 23.552-9.472 23.637333-7.04 23.466667-7.125334L396.544 12.8 408.32 10.496 421.290667 8.106667l12.970666-2.304 25.941334-3.541334 25.898666-1.28 12.970667-1.024H512z m283.648 391.936h214.272l4.693333 21.162667h-209.578666l-9.386667-21.162667z m21.162667 49.365333h202.538666l2.346667 21.205334h-196.650667l-8.234666-21.205334z m21.205333 49.493334H1024v21.12h-177.749333l-8.234667-21.12z m20.053333 49.408H1024l-2.304 21.205333h-154.197333l-9.472-21.205333z m21.205334 49.493333h138.88l-3.541334 21.12h-125.952l-9.386666-21.12z m21.12 49.408h108.373333l-5.930667 20.053333h-92.970666l-9.472-20.053333zM178.858667 719.018667l138.88-350.72 144.810666 350.72H178.773333z m290.730666 0l138.88-350.72 144.810667 350.72h-283.690667z" fill="#C4282B" p-id="7630"></path></svg>